<?xml version="1.0" encoding="UTF-8"?>
<!DOCTYPE svg PUBLIC "-//W3C//DTD SVG 1.0//EN" "http://www.w3.org/TR/2001/REC-SVG-20010904/DTD/svg10.dtd">
<!-- Creator: CorelDRAW 2021.5 -->
<svg xmlns="http://www.w3.org/2000/svg" xml:space="preserve" width="150px" height="150px" version="1.0" style="shape-rendering:geometricPrecision; text-rendering:geometricPrecision; image-rendering:optimizeQuality; fill-rule:evenodd; clip-rule:evenodd"
viewBox="0 0 150 150"
 xmlns:xlink="http://www.w3.org/1999/xlink"
 xmlns:xodm="http://www.corel.com/coreldraw/odm/2003">
 <defs>
  <style type="text/css">
   <![CDATA[
    .fil0 {fill:#009B4C;fill-rule:nonzero}
   ]]>
  </style>
 </defs>
 <g id="Layer_x0020_1">
  <metadata id="CorelCorpID_0Corel-Layer"/>
  <g id="Layer_2_1_">
   <g id="Icons">
    <path class="fil0" d="M117.19 12.5c-17.5,0 -31.88,13.75 -32.81,31.25l0 0c0,0 0,0 0,0l0 3.13c0,3.43 2.81,6.25 6.25,6.25 3.43,0 6.25,-2.82 6.25,-6.25l0 -3.13c0.93,-11.25 10.62,-19.69 21.87,-18.75 11.25,0.94 19.69,10.63 18.75,21.88 -0.94,10.62 -9.69,18.75 -20.31,18.75l-110.94 0c-3.44,0 -6.25,2.81 -6.25,6.25 0,0 0,0 0,0l0 0c0,3.43 2.81,6.25 6.25,6.25 0,0 0,0 0,0l110.94 0c18.12,0 32.81,-14.69 32.81,-32.82 0,-18.12 -14.69,-32.81 -32.81,-32.81z"/>
    <path class="fil0" d="M5.94 56.25l44.06 0c15.62,0 28.13,-12.5 28.13,-28.12 0,-15.63 -12.5,-28.13 -28.13,-28.13 -15.63,0 -28.12,12.5 -28.12,28.13l0 0c0,0 0,0 0,0l0 3.12c0,3.44 2.81,6.25 6.25,6.25 3.43,0 6.25,-2.81 6.25,-6.25l-0.01 -3.12c0,-8.75 6.88,-15.63 15.63,-15.63 8.75,0 15.62,6.88 15.62,15.63 0,8.75 -6.87,15.62 -15.62,15.62l-44.06 0c-3.13,0 -5.94,2.81 -5.94,5.94 0,0 0,0 0,0l0 0.31c0,3.44 2.81,6.25 5.94,6.25 0,0 0,0 0,0z"/>
    <path class="fil0" d="M87.5 87.5l-81.25 0c-3.44,0 -6.25,2.81 -6.25,6.25 0,3.44 2.81,6.25 6.25,6.25l81.25 0c10.31,0 18.75,8.44 18.75,18.75 0,10.31 -8.44,18.75 -18.75,18.75 -10.31,0 -18.75,-8.44 -18.75,-18.75l0 -3.12c0,-3.44 -2.81,-6.25 -6.25,-6.25 -3.44,0 -6.25,2.81 -6.25,6.25l0 3.12c0,0 0,0 0,0l0 0c0,17.19 14.06,31.25 31.25,31.25 17.19,0 31.25,-14.06 31.25,-31.25 0,-17.19 -14.06,-31.25 -31.25,-31.25z"/>
   </g>
  </g>
 </g>
</svg>
