<?xml version="1.0" encoding="UTF-8"?>
<!DOCTYPE svg PUBLIC "-//W3C//DTD SVG 1.0//EN" "http://www.w3.org/TR/2001/REC-SVG-20010904/DTD/svg10.dtd">
<!-- Creator: CorelDRAW 2021.5 -->
<svg xmlns="http://www.w3.org/2000/svg" xml:space="preserve" width="150px" height="150px" version="1.0" style="shape-rendering:geometricPrecision; text-rendering:geometricPrecision; image-rendering:optimizeQuality; fill-rule:evenodd; clip-rule:evenodd"
viewBox="0 0 150 150.16"
 xmlns:xlink="http://www.w3.org/1999/xlink"
 xmlns:xodm="http://www.corel.com/coreldraw/odm/2003">
 <defs>
  <style type="text/css">
   <![CDATA[
    .fil0 {fill:#00A2E9;fill-rule:nonzero}
   ]]>
  </style>
 </defs>
 <g id="Layer_x0020_1">
  <metadata id="CorelCorpID_0Corel-Layer"/>
  <g id="Layer_2_1_">
   <g id="Icons">
    <path class="fil0" d="M149.38 37.42l-45.63 -37.18c-0.31,-0.32 -0.62,-0.32 -0.94,0l-45.94 37.18c-0.31,0.32 -0.62,0.63 -0.62,1.25l0 55.31c3.75,0.63 7.19,1.57 10.31,3.44 2.5,1.88 5.31,2.5 8.44,2.5 3.13,0 5.94,-0.62 8.44,-2.5 4.37,-2.5 9.37,-4.06 14.37,-3.75 5,0 10,1.25 14.38,3.75 5.31,3.13 11.87,3.13 16.87,0 4.38,-2.5 9.38,-4.06 14.38,-3.75 2.19,0 4.06,0.32 6.25,0.63l0 -55.63c0.31,-0.62 0,-0.93 -0.31,-1.25z"/>
    <path class="fil0" d="M143.75 131.17c-5,0 -10,1.25 -14.38,3.75 -5.31,3.13 -11.87,3.13 -16.87,0 -4.38,-2.5 -9.38,-4.06 -14.38,-3.75 -5,0 -10,1.25 -14.37,3.75 -2.81,1.88 -5.62,2.5 -8.75,2.5 -3.13,0 -5.94,-0.62 -8.44,-2.5 -4.37,-2.5 -9.37,-4.06 -14.37,-3.75 -5,0 -10,1.25 -14.38,3.75 -2.5,1.56 -5.62,2.5 -8.44,2.5 -3.12,0 -5.93,-0.62 -8.43,-2.5 -4.69,-2.5 -9.69,-3.75 -14.69,-3.75 -3.44,0 -6.25,2.81 -6.25,6.25 0,3.44 2.81,6.25 6.25,6.25 3.13,0 5.94,0.63 8.44,2.5 4.37,2.5 9.37,4.07 14.37,3.75 5,0 10,-1.25 14.38,-3.75 2.5,-1.56 5.62,-2.5 8.44,-2.5 3.12,0 5.93,0.63 8.43,2.5 4.38,2.5 9.38,4.07 14.38,3.75 5,0 10,-1.25 14.37,-3.75 5.32,-3.12 11.88,-3.12 16.88,0 9.06,5.32 20,5.32 29.06,0 2.81,-1.87 5.63,-2.5 8.75,-2.5 3.44,0 6.25,-2.81 6.25,-6.25 0,-3.44 -2.81,-6.25 -6.25,-6.25z"/>
    <path class="fil0" d="M143.75 106.17c-5,0 -10,1.25 -14.38,3.75 -5.31,3.13 -11.87,3.13 -16.87,0 -4.38,-2.5 -9.38,-4.06 -14.38,-3.75 -5,0 -10,1.25 -14.37,3.75 -2.81,1.88 -5.62,2.5 -8.75,2.5 -3.13,0 -5.94,-0.62 -8.44,-2.5 -4.37,-2.5 -9.37,-4.06 -14.37,-3.75 -5,0 -10,1.25 -14.38,3.75 -2.5,1.56 -5.31,2.5 -8.44,2.5 -3.12,0 -5.93,-0.62 -8.43,-2.5 -4.69,-2.5 -9.69,-3.75 -14.69,-3.75 -3.44,0 -6.25,2.81 -6.25,6.25 0,3.44 2.81,6.25 6.25,6.25 3.13,0 5.94,0.63 8.44,2.5 4.37,2.5 9.37,4.07 14.37,3.75 5,0 10,-1.25 14.38,-3.75 2.5,-1.56 5.31,-2.5 8.44,-2.5 3.12,0 5.93,0.63 8.43,2.5 4.38,2.5 9.38,4.07 14.38,3.75 5,0 10,-1.25 14.37,-3.75 5.32,-3.12 11.88,-3.12 16.88,0 9.06,5.32 20,5.32 29.06,0 2.81,-1.87 5.63,-2.5 8.75,-2.5 3.44,0 6.25,-2.81 6.25,-6.25 0,-3.44 -2.81,-6.25 -6.25,-6.25z"/>
   </g>
  </g>
 </g>
</svg>
