<?xml version="1.0" encoding="UTF-8"?>
<!DOCTYPE svg PUBLIC "-//W3C//DTD SVG 1.0//EN" "http://www.w3.org/TR/2001/REC-SVG-20010904/DTD/svg10.dtd">
<!-- Creator: CorelDRAW 2021.5 -->
<svg xmlns="http://www.w3.org/2000/svg" xml:space="preserve" width="125px" height="150px" version="1.0" style="shape-rendering:geometricPrecision; text-rendering:geometricPrecision; image-rendering:optimizeQuality; fill-rule:evenodd; clip-rule:evenodd"
viewBox="0 0 125 150"
 xmlns:xlink="http://www.w3.org/1999/xlink"
 xmlns:xodm="http://www.corel.com/coreldraw/odm/2003">
 <defs>
  <style type="text/css">
   <![CDATA[
    .fil0 {fill:#E62129;fill-rule:nonzero}
   ]]>
  </style>
 </defs>
 <g id="Layer_x0020_1">
  <metadata id="CorelCorpID_0Corel-Layer"/>
  <g id="Layer_2_1_">
   <g id="Icons">
    <path class="fil0" d="M123.75 56.25l-59.06 -55.31c-1.25,-1.25 -3.13,-1.25 -4.38,0l-59.06 55.31c-0.63,0.94 -1.25,1.88 -1.25,3.12l0 87.5c0,1.88 1.25,3.13 3.13,3.13l41.24 0 27.82 -27.81 -26.25 -23.75c-1.57,-1.25 -2.19,-2.82 -2.19,-4.69 0,-1.88 0.94,-3.44 2.19,-4.69l16.87 -14.37 -10.93 -10.94c-2.5,-2.5 -2.5,-6.25 0,-8.75 0,0 0,0 0,0l12.5 -12.5c2.5,-2.5 6.25,-2.5 8.75,0 2.49,2.5 2.5,6.25 0,8.75l-8.13 8.12 11.25 11.25c1.25,1.25 1.88,2.82 1.88,4.69 0,1.88 -0.94,3.44 -2.19,4.38l-16.57 14.06 25.94 23.44c2.5,2.18 2.81,6.25 0.31,8.75 0,0 -0.31,0.31 -0.31,0.31l-23.43 23.75 59.99 0c1.88,0 3.13,-1.25 3.13,-3.13l0 -87.5c0,-1.24 -0.62,-2.18 -1.25,-3.12z"/>
   </g>
  </g>
 </g>
</svg>
