<?xml version="1.0" encoding="UTF-8"?>
<!DOCTYPE svg PUBLIC "-//W3C//DTD SVG 1.0//EN" "http://www.w3.org/TR/2001/REC-SVG-20010904/DTD/svg10.dtd">
<!-- Creator: CorelDRAW 2021.5 -->
<svg xmlns="http://www.w3.org/2000/svg" xml:space="preserve" width="468px" height="571px" version="1.0" style="shape-rendering:geometricPrecision; text-rendering:geometricPrecision; image-rendering:optimizeQuality; fill-rule:evenodd; clip-rule:evenodd"
viewBox="0 0 2.82 3.46"
 xmlns:xlink="http://www.w3.org/1999/xlink"
 xmlns:xodm="http://www.corel.com/coreldraw/odm/2003">
 <defs>
  <style type="text/css">
   <![CDATA[
    .fil0 {fill:red}
   ]]>
  </style>
 </defs>
 <g id="Layer_x0020_1">
  <metadata id="CorelCorpID_0Corel-Layer"/>
  <path class="fil0" d="M1.28 3.45c-0.26,-0.03 -0.51,-0.06 -0.73,-0.18 -0.21,-0.13 -0.38,-0.35 -0.46,-0.59 -0.09,-0.24 -0.1,-0.51 -0.09,-0.76 0.02,-0.26 0.04,-0.49 0.07,-0.73 0.23,0.3 0.45,0.6 0.59,0.7 0.14,0.1 0.2,0 0.18,-0.12 -0.01,-0.12 -0.09,-0.26 -0.16,-0.4 -0.07,-0.13 -0.14,-0.24 -0.13,-0.4 0.01,-0.16 0.09,-0.35 0.18,-0.5 0.09,-0.15 0.19,-0.25 0.28,-0.35 0,0.14 -0.01,0.29 -0.01,0.43 -0.01,0.13 -0.02,0.26 0.03,0.38 0.05,0.12 0.15,0.22 0.23,0.28 0.08,0.06 0.13,0.07 0.15,0.02 0.02,-0.04 0.01,-0.15 0.01,-0.24 0.01,-0.09 0.03,-0.16 0.08,-0.25 0.06,-0.08 0.13,-0.17 0.23,-0.28 0.1,-0.1 0.23,-0.21 0.34,-0.29 0.11,-0.08 0.2,-0.13 0.29,-0.17 -0.07,0.11 -0.13,0.21 -0.18,0.31 -0.05,0.09 -0.09,0.18 -0.1,0.35 0,0.18 0.02,0.45 0.06,0.63 0.04,0.17 0.1,0.26 0.17,0.26 0.07,0 0.14,-0.08 0.21,-0.15 0.07,-0.08 0.13,-0.15 0.19,-0.22 0.04,0.18 0.08,0.35 0.1,0.61 0.02,0.25 0.03,0.57 -0.05,0.84 -0.07,0.27 -0.22,0.48 -0.4,0.61 -0.17,0.13 -0.37,0.16 -0.51,0.19 -0.14,0.02 -0.21,0.02 -0.28,0.03 0.1,-0.08 0.2,-0.17 0.31,-0.28 0.12,-0.11 0.25,-0.24 0.33,-0.37 0.08,-0.14 0.12,-0.27 0.16,-0.41 -0.19,0.09 -0.39,0.18 -0.54,0.02 -0.15,-0.17 -0.25,-0.58 -0.35,-0.58 -0.1,0 -0.19,0.43 -0.36,0.59 -0.17,0.16 -0.42,0.06 -0.66,-0.04 0,0.12 0.01,0.25 0.1,0.39 0.09,0.14 0.27,0.28 0.41,0.4 0.13,0.11 0.22,0.19 0.31,0.27z"/>
 </g>
</svg>
