<?xml version="1.0" encoding="UTF-8"?>
<!DOCTYPE svg PUBLIC "-//W3C//DTD SVG 1.0//EN" "http://www.w3.org/TR/2001/REC-SVG-20010904/DTD/svg10.dtd">
<!-- Creator: CorelDRAW 2021.5 -->
<svg xmlns="http://www.w3.org/2000/svg" xml:space="preserve" width="468px" height="426px" version="1.0" style="shape-rendering:geometricPrecision; text-rendering:geometricPrecision; image-rendering:optimizeQuality; fill-rule:evenodd; clip-rule:evenodd"
viewBox="0 0 3.04 2.73"
 xmlns:xlink="http://www.w3.org/1999/xlink"
 xmlns:xodm="http://www.corel.com/coreldraw/odm/2003">
 <defs>
  <style type="text/css">
   <![CDATA[
    .fil0 {fill:yellow;fill-rule:nonzero}
   ]]>
  </style>
 </defs>
 <g id="Layer_x0020_1">
  <metadata id="CorelCorpID_0Corel-Layer"/>
  <path class="fil0" d="M0.21 0.74c0.09,-0.08 0.2,-0.12 0.31,-0.11 0.26,-0.02 0.49,0.17 0.53,0.42l0.16 0.98c-0.13,-0.06 -0.29,-0.05 -0.42,0.01l-0.16 -0.99c-0.07,-0.18 -0.23,-0.31 -0.42,-0.31zm1.26 1.41c0.08,-0.06 0.17,-0.11 0.27,-0.14l0.25 -1.59c0.07,-0.18 0.23,-0.31 0.42,-0.31 -0.08,-0.08 -0.2,-0.11 -0.31,-0.11 -0.26,-0.02 -0.49,0.17 -0.53,0.42l-0.27 1.64c0.06,0.02 0.12,0.05 0.17,0.09zm0.9 -0.1l0 0c0.04,-0.03 0.07,-0.05 0.11,-0.07l0.14 -0.93c0.07,-0.18 0.23,-0.31 0.42,-0.31 -0.08,-0.08 -0.2,-0.11 -0.31,-0.11 -0.26,-0.02 -0.49,0.17 -0.53,0.42l-0.14 0.84c0.12,0.03 0.22,0.08 0.31,0.16zm0.46 0.26l0 0c-0.09,0 -0.18,0.03 -0.25,0.09l-0.09 0.09c-0.06,0.05 -0.15,0.05 -0.21,0 -0.04,-0.03 -0.06,-0.06 -0.1,-0.09 -0.14,-0.12 -0.36,-0.12 -0.51,0 -0.03,0.03 -0.07,0.06 -0.1,0.09 -0.06,0.05 -0.15,0.05 -0.21,0 -0.03,-0.03 -0.06,-0.06 -0.1,-0.09 -0.15,-0.12 -0.36,-0.12 -0.51,0 -0.03,0.03 -0.06,0.06 -0.09,0.09 -0.02,0.01 -0.04,0.02 -0.07,0.03 -0.06,0.01 -0.12,-0.01 -0.16,-0.05 -0.06,-0.05 -0.11,-0.09 -0.17,-0.13 -0.04,-0.02 -0.09,-0.03 -0.14,-0.03l-0.02 0c-0.05,0 -0.1,0.05 -0.1,0.11 0,0.05 0.05,0.1 0.1,0.1l0 0c0.06,0 0.1,0.03 0.14,0.07l0.07 0.05c0.15,0.12 0.35,0.12 0.49,0.01 0.04,-0.03 0.08,-0.06 0.12,-0.1 0.06,-0.05 0.15,-0.05 0.21,0l0.08 0.08c0.15,0.13 0.37,0.13 0.52,0.01 0.03,-0.02 0.05,-0.05 0.09,-0.07 0.06,-0.07 0.16,-0.07 0.22,-0.01 0.01,0 0.01,0 0.01,0.01l0.08 0.07c0.1,0.09 0.24,0.11 0.37,0.08 0.08,-0.03 0.15,-0.07 0.21,-0.13 0.03,-0.04 0.08,-0.06 0.12,-0.07l0 0c0.06,0 0.11,-0.05 0.11,-0.1 0,-0.06 -0.05,-0.11 -0.11,-0.11z"/>
 </g>
</svg>
