<?xml version="1.0" encoding="UTF-8"?>
<!DOCTYPE svg PUBLIC "-//W3C//DTD SVG 1.0//EN" "http://www.w3.org/TR/2001/REC-SVG-20010904/DTD/svg10.dtd">
<!-- Creator: CorelDRAW 2021.5 -->
<svg xmlns="http://www.w3.org/2000/svg" xml:space="preserve" width="150px" height="150px" version="1.0" style="shape-rendering:geometricPrecision; text-rendering:geometricPrecision; image-rendering:optimizeQuality; fill-rule:evenodd; clip-rule:evenodd"
viewBox="0 0 149.99 150.04"
 xmlns:xlink="http://www.w3.org/1999/xlink"
 xmlns:xodm="http://www.corel.com/coreldraw/odm/2003">
 <defs>
  <style type="text/css">
   <![CDATA[
    .fil0 {fill:#F08519;fill-rule:nonzero}
   ]]>
  </style>
 </defs>
 <g id="Layer_x0020_1">
  <metadata id="CorelCorpID_0Corel-Layer"/>
  <g id="Layer_2_1_">
   <g id="Icons">
    <path class="fil0" d="M148.77 61.58c-1.25,-3.44 -4.07,-6.25 -7.5,-7.5 -3.44,-1.25 -7.51,-1.25 -10.94,0 -2.19,0.93 -3.13,3.75 -1.88,5.62 0,0 0,0.32 0,0.32 0.94,1.87 3.13,2.81 5.31,2.18 1.25,-0.31 2.51,0 3.76,0.32 0.93,0.31 1.87,1.25 2.5,2.5 1.25,3.44 -0.32,7.5 -3.75,9.06 -2.51,0.94 -5.32,0.94 -7.82,0 -2.5,-0.94 -4.38,-2.81 -5.31,-5.31l-20.32 -44.08c-1.25,-2.18 -3.75,-3.43 -6.25,-2.18 -2.19,1.25 -3.44,3.75 -2.19,6.25l0 0 20.32 44.07c1.87,4.69 5.62,8.44 10.31,10.31 2.19,0.94 5,1.57 7.5,1.57 2.5,0 5,-0.63 7.5,-1.57 8.13,-3.75 12.2,-13.12 8.76,-21.56z"/>
    <path class="fil0" d="M65.62 22.82c-1.56,-3.44 -5.62,-5 -9.38,-3.44 -1.56,0.63 -2.81,1.88 -3.43,3.44l-52.2 117.21c-1.57,3.44 0,7.82 3.44,9.38 0.93,0.31 1.87,0.63 3.12,0.63l104.71 0c3.75,0 7.19,-3.13 7.19,-6.88 0,-0.94 -0.31,-1.88 -0.62,-2.81l-52.83 -117.53z"/>
    <path class="fil0" d="M115.95 29.69c0.62,0.94 1.56,1.57 2.81,1.57l15.63 0c1.25,0 2.19,-0.63 2.81,-1.57l6.25 -12.5c0.63,-0.94 0.63,-2.19 0,-3.12l-6.25 -12.51c-0.62,-0.94 -1.56,-1.56 -2.81,-1.56l-15.63 0c-1.25,0 -2.19,0.62 -2.81,1.56l-6.25 12.51c-0.63,0.93 -0.63,2.18 0,3.12l6.25 12.5z"/>
   </g>
  </g>
 </g>
</svg>
